<svg xmlns="http://www.w3.org/2000/svg" width="24" height="24" viewBox="0 0 24 24">
  <title>period_icons</title>
  <rect width="24" height="24" fill="none"/>
  <g>
    <path d="M18,4V20H6V4H18m0-1H6A.94.94,0,0,0,5,4V20a.94.94,0,0,0,1,1H18a.94.94,0,0,0,1-1V4a.94.94,0,0,0-1-1Z"/>
    <rect x="7" y="6" width="10" height="1"/>
    <rect x="7" y="8" width="10" height="1"/>
    <rect x="7" y="10" width="10" height="1"/>
    <rect x="7" y="12" width="6.5" height="1"/>
    <path d="M13.2,15.1h0c.2,0,.4.1.4.3a.75.75,0,0,1-.2.7L12,17.5l-1.4-1.4c-.2-.2-.4-.4-.2-.7.1-.1.2-.3.4-.3a.85.85,0,0,1,.5.3l.7.7.7-.7a.91.91,0,0,1,.5-.3m0-1a1.73,1.73,0,0,0-1.2.6,1.73,1.73,0,0,0-1.2-.6,1.51,1.51,0,0,0-.9,2.7L12,18.9l2.1-2.1a1.51,1.51,0,0,0-.9-2.7Z"/>
  </g>
</svg>
