<svg xmlns="http://www.w3.org/2000/svg" width="24" height="24" viewBox="0 0 24 24">
  <title>period_icons</title>
  <rect width="24" height="24" fill="none"/>
  <g>
    <path d="M20,5H17V3.5a.5.5,0,0,0-1,0V5H8V3.5a.5.5,0,0,0-1,0V5H4A.94.94,0,0,0,3,6V20a.94.94,0,0,0,1,1H20a.94.94,0,0,0,1-1V6A.94.94,0,0,0,20,5Zm0,15H4V10H20ZM4,9V6H7v.5a.5.5,0,0,0,1,0V6h8v.5a.5.5,0,0,0,1,0V6h3V9Z"/>
    <path d="M18,11a1,1,0,1,0,1,1,.94.94,0,0,0-1-1Z"/>
    <path d="M15,11a1,1,0,1,0,1,1,.94.94,0,0,0-1-1Z"/>
    <path d="M12,11a1,1,0,1,0,1,1,.94.94,0,0,0-1-1Z"/>
    <path d="M18,14a1,1,0,1,0,1,1,.94.94,0,0,0-1-1Z"/>
    <path d="M15,14a1,1,0,1,0,1,1,.94.94,0,0,0-1-1Z"/>
    <path d="M12,14a1,1,0,1,0,1,1,.94.94,0,0,0-1-1Z"/>
    <path d="M9,14a1,1,0,0,0,0,2,1,1,0,0,0,0-2Z"/>
    <path d="M6,14a1,1,0,0,0,0,2,1,1,0,0,0,0-2Z"/>
    <path d="M9,17a1,1,0,0,0,0,2,1,1,0,0,0,0-2Z"/>
    <path d="M6,17a1,1,0,0,0,0,2,1,1,0,0,0,0-2Z"/>
    <path d="M12,17a1,1,0,1,0,1,1,.94.94,0,0,0-1-1Z"/>
  </g>
</svg>
