<svg xmlns="http://www.w3.org/2000/svg" width="24" height="24" viewBox="0 0 24 24">
  <title>period_icons</title>
  <rect width="24" height="24" fill="none"/>
  <g>
    <path d="M22,22h-.5a4.49,4.49,0,0,1-4.24-3H3.5A1.5,1.5,0,0,1,2,17.5V5.5A1.5,1.5,0,0,1,3.5,4h17A1.5,1.5,0,0,1,22,5.5ZM3.5,5a.5.5,0,0,0-.5.5v12a.5.5,0,0,0,.5.5H18l.09.38A3.49,3.49,0,0,0,21,21V5.5a.5.5,0,0,0-.5-.5Z"/>
    <rect x="5" y="8" width="14" height="1"/>
    <rect x="5" y="11" width="14" height="1"/>
    <rect x="5" y="14" width="14" height="1"/>
  </g>
</svg>
