<svg xmlns="http://www.w3.org/2000/svg" xmlns:xlink="http://www.w3.org/1999/xlink" width="152" height="152" viewBox="0 0 152 152">
  <defs>
    <radialGradient id="a" cx="3.77" cy="3.93" r="204.62" gradientUnits="userSpaceOnUse">
      <stop offset="0" stop-color="#fff" stop-opacity="0.1"/>
      <stop offset="1" stop-color="#fff" stop-opacity="0"/>
    </radialGradient>
  </defs>
  <title>daisy_logo</title>
  <g>
    <rect width="152" height="152" rx="12" ry="12" fill="#e0e0e0"/>
    <rect width="152" height="152" rx="12" ry="12" fill="#8bfcd3"/>
  </g>
  <g>
    <path d="M76.25,49.09s-15.7,6.69-26.4,44.45c-7.45,26.32-5.7,44.91,5.69,51.1,0,0,46.18,19.07,81.27-1.9,10.77-6.44,12.88-23.15,5.43-49.45C131.36,54.8,115.67,49.1,115.67,49.1S96.22,39.78,76.25,49.09Z" transform="translate(-20 -20)" fill="#2f1463"/>
    <path d="M83.06,131.57c.07-.07,14.22-6.36,25.43,0a1.47,1.47,0,0,1,1.9,1c.38,1.15.24,4.75-.24,7.37-.66,3.62-28.52,4.28-28.64-.83s-.12-6.07-.12-6.07S81.63,131.09,83.06,131.57Z" transform="translate(-20 -20)" fill="#d8445d"/>
    <rect x="66.14" y="99.69" width="19.73" height="22.1" fill="#e0a39a"/>
    <path d="M128.64,97.11c11.88-10.94,1-13.59,1-13.59v0l-1.3-19c-.38-6.77-30.77-8.3-30.77-8.3S67.7,58,67.32,64.72L66.13,82.23h0S55,85,65.89,97.82c0,0,6.79,27.09,31,27.09S128.64,97.11,128.64,97.11Z" transform="translate(-20 -20)" fill="#f2c8bf"/>
    <path d="M95.47,113.64a7,7,0,0,1-2-.28c-3.24-.92-5.52-4-5.64-5.24a.83.83,0,0,1,1.66-.16,7.24,7.24,0,0,0,4.59,3.84c2.76.7,5.51-.73,8.17-4.26a.84.84,0,0,1,1.17-.17.83.83,0,0,1,.16,1.17C100.63,112.52,97.75,113.64,95.47,113.64Z" transform="translate(-20 -20)" fill="#d2948b"/>
    <path d="M95.84,102.93a.59.59,0,0,1-.59-.51c-.08-.54-1-1-1.67-1.24s-1.26-.56-1.27-1.13a.92.92,0,0,1,.59-.83c.73-1.07,1.28-10.57,1.39-19.23a.61.61,0,0,1,.6-.59.59.59,0,0,1,.59.6s-.06,4.82-.3,9.62c-.38,7.87-.91,9.79-1.35,10.37l.23.1c.93.41,2.2,1,2.37,2.16a.59.59,0,0,1-.51.67Z" transform="translate(-20 -20)" fill="#d2948b"/>
    <path d="M84.9,96.39a1.66,1.66,0,0,1-1.66-1.66V88.31a1.67,1.67,0,0,1,3.33,0v6.42A1.66,1.66,0,0,1,84.9,96.39Z" transform="translate(-20 -20)" fill="#d2948b"/>
    <path d="M108.91,96.16a1.66,1.66,0,0,1-1.66-1.67V88.07a1.66,1.66,0,0,1,3.32,0v6.42A1.66,1.66,0,0,1,108.91,96.16Z" transform="translate(-20 -20)" fill="#d2948b"/>
    <g>
      <path d="M65.53,84.63s-4.75,1.42-2.14,6.89,1.67-.47,1.67-.47" transform="translate(-20 -20)" fill="#f2c8be"/>
      <path d="M64.92,94.43c-.59,0-1.14-.72-2.06-2.65a6.05,6.05,0,0,1-.47-5.12,5.1,5.1,0,0,1,3-2.6.58.58,0,0,1,.74.4.59.59,0,0,1-.39.74,3.92,3.92,0,0,0-2.23,2,4.93,4.93,0,0,0,.45,4.11c.29.61.52,1,.69,1.34a11.49,11.49,0,0,0-.15-1.46.6.6,0,0,1,.49-.68.61.61,0,0,1,.69.49c.5,3.14-.16,3.34-.48,3.44A.77.77,0,0,1,64.92,94.43Z" transform="translate(-20 -20)" fill="#d2948b"/>
    </g>
    <g>
      <path d="M129.94,85.58s4.21.47,1.6,5.94-1.67-.47-1.67-.47" transform="translate(-20 -20)" fill="#f2c8be"/>
      <path d="M130,94.43a.77.77,0,0,1-.25,0c-.32-.1-1-.3-.48-3.44a.61.61,0,0,1,.69-.49.6.6,0,0,1,.49.68,11.49,11.49,0,0,0-.15,1.46c.17-.3.4-.73.69-1.34.83-1.73,1-3.12.53-4a2.37,2.37,0,0,0-1.66-1.09.59.59,0,0,1-.51-.66A.58.58,0,0,1,130,85a3.58,3.58,0,0,1,2.56,1.68c.69,1.25.52,3-.5,5.11C131.15,93.71,130.6,94.43,130,94.43Z" transform="translate(-20 -20)" fill="#d2948b"/>
    </g>
    <path d="M96,68.82l2.14,12.6s11.29.71,15.33-.24l-1-10.69,2.14,10.69,15.21-1s6.42-35.17-34.46-36.13c0,0-36.55-.64-31.8,37.28l12.66,0,2.14-9.51-.24,9.51s15,1.27,17.35,0Z" transform="translate(-20 -20)" fill="#2f1463"/>
    <g>
      <path d="M68.45,79.65s-5.38-9,0-9S68.45,79.65,68.45,79.65Z" transform="translate(-20 -20)" fill="#fff"/>
      <path d="M68.42,79.68S71,69.55,74.75,73.35,68.42,79.68,68.42,79.68Z" transform="translate(-20 -20)" fill="#fff"/>
      <path d="M68.6,80.2s9.5-5.71,9.5,0S68.6,80.2,68.6,80.2Z" transform="translate(-20 -20)" fill="#fff"/>
      <path d="M68.56,80.16s10.76,2.69,6.72,6.73S68.56,80.16,68.56,80.16Z" transform="translate(-20 -20)" fill="#fff"/>
      <path d="M68.6,80s5.7,9.51,0,9.51S68.6,80,68.6,80Z" transform="translate(-20 -20)" fill="#fff"/>
      <path d="M68.63,80.16s-2.69,10.76-6.72,6.73S68.63,80.16,68.63,80.16Z" transform="translate(-20 -20)" fill="#fff"/>
      <path d="M68.6,80.2s-9.51,5.7-9.51,0S68.6,80.2,68.6,80.2Z" transform="translate(-20 -20)" fill="#fff"/>
      <path d="M68.63,80.23s-10.76-2.69-6.72-6.72S68.63,80.23,68.63,80.23Z" transform="translate(-20 -20)" fill="#fff"/>
      <circle cx="48.6" cy="60.2" r="3.45" fill="#f7ce26"/>
    </g>
    <path d="M83.06,131.57s10.81,3.8,25.37,0a1.53,1.53,0,0,1,2,1c.38,1.15.24,6.65-.24,9.27-.66,3.63-28.52,4.28-28.64-.83s-.12-8-.12-8S81.63,131.09,83.06,131.57Z" transform="translate(-20 -20)" fill="#f25c6e"/>
    <path d="M146.36,171.92l-1.16-6c-4-14.2-12.35-27.46-27.45-27.46H78.06c-16.15,0-24.25,12.86-29.36,29.36l-1,4.1Z" transform="translate(-20 -20)" fill="#ff787d"/>
  </g>
  <g>
    <path d="M160,20H32A12,12,0,0,0,20,32v1A12,12,0,0,1,32,21H160a12,12,0,0,1,12,12V32A12,12,0,0,0,160,20Z" transform="translate(-20 -20)" fill="#fff" fill-opacity="0.2"/>
    <path d="M160,172H32a12,12,0,0,1-12-12v-1a12,12,0,0,0,12,12H160a12,12,0,0,0,12-12v1A12,12,0,0,1,160,172Z" transform="translate(-20 -20)" fill="#212121" fill-opacity="0.1"/>
  </g>
  <rect width="152" height="152" rx="12" ry="12" fill="url(#a)"/>
</svg>
