<svg xmlns="http://www.w3.org/2000/svg" width="24" height="24" viewBox="0 0 24 24">
  <title>period_icons</title>
  <rect width="24" height="24" fill="none"/>
  <path d="M12,20.4,4.93,13.33C2,10.41,2.35,7,4.2,5.17s5-2.16,7.8.39a6,6,0,0,1,5.57-1.81A4.85,4.85,0,0,1,21,7.16a6.35,6.35,0,0,1-2,6.16ZM7.7,4.73A3.89,3.89,0,0,0,4.91,5.88c-1.45,1.44-1.84,4.17.73,6.74L12,19l6.37-6.36a5.39,5.39,0,0,0,1.69-5.19,3.85,3.85,0,0,0-2.73-2.71c-1.63-.41-3.39.26-5,1.88L12,7l-.36-.36A5.64,5.64,0,0,0,7.7,4.73Z"/>
</svg>
