<svg xmlns="http://www.w3.org/2000/svg" width="24" height="24" viewBox="0 0 24 24">
  <title>period_icons</title>
  <rect width="24" height="24" fill="none"/>
  <g>
    <path d="M6.8,3.3h0a1,1,0,0,0-1.4,0A10.4,10.4,0,0,0,2.15,9.34a1,1,0,0,0,1,1.16h0a1,1,0,0,0,1-.83A8.44,8.44,0,0,1,6.77,4.73,1,1,0,0,0,6.8,3.3Z"/>
    <path d="M20.86,10.5h0a1,1,0,0,0,1-1.16A10.48,10.48,0,0,0,18.6,3.28a1,1,0,0,0-1.4,0h0a1,1,0,0,0,0,1.42,8.5,8.5,0,0,1,2.65,4.94A1,1,0,0,0,20.86,10.5Z"/>
    <path d="M12,22a1.75,1.75,0,0,0,.4,0,2,2,0,0,0,1.44-1.18A2,2,0,0,0,14,20H10A2,2,0,0,0,12,22Z"/>
    <path d="M20,18a1,1,0,0,1-1,1H5a1,1,0,0,1,0-2H6V11c0-3.08,1.63-5.64,4.5-6.32V4a1.5,1.5,0,0,1,3,0v.68C16.36,5.36,18,7.93,18,11v6h1A1,1,0,0,1,20,18Z"/>
  </g>
</svg>
