<svg xmlns="http://www.w3.org/2000/svg" width="24" height="24" viewBox="0 0 24 24">
  <title>period_icons</title>
  <rect width="24" height="24" fill="none"/>
  <g>
    <path d="M21,8.6v1.8a5,5,0,0,1-5,5H8a5,5,0,0,1-5-5V8.6H7a5.08,5.08,0,0,1,4.2,2.2l.8,1.3.8-1.3A5,5,0,0,1,17,8.6h4m1-1H17a6.07,6.07,0,0,0-5,2.7A6.07,6.07,0,0,0,7,7.6H2v2.8a6,6,0,0,0,6,6h8a6,6,0,0,0,6-6V7.6Z"/>
    <path d="M17.6,10.9v.3A1.79,1.79,0,0,1,15.8,13H14.4v-.3a1.79,1.79,0,0,1,1.8-1.8h1.4m.9-.9H16.2a2.69,2.69,0,0,0-2.7,2.7V14h2.3a2.69,2.69,0,0,0,2.7-2.7V10Z"/>
    <path d="M6.4,10.9H7.8a1.79,1.79,0,0,1,1.8,1.8V13H8.2a1.79,1.79,0,0,1-1.8-1.8v-.3M5.5,10v1.3A2.69,2.69,0,0,0,8.2,14h2.3V12.7A2.69,2.69,0,0,0,7.8,10Z"/>
  </g>
</svg>
